<svg width="228" height="169" viewBox="0 0 228 169" fill="none" xmlns="http://www.w3.org/2000/svg">
<path d="M17.0848 75.7478V69.3942H21.8242V66.284C21.8242 62.2281 23.2218 59.3443 26.0232 57.6326C28.8214 55.9209 32.567 55.3132 37.2629 55.8062V62.9041C34.9615 62.8142 33.3465 63.0157 32.421 63.5118C31.4955 64.008 31.0327 65.1119 31.0327 66.8236V69.3911H37.2598V75.7447H31.0327V104.068H21.8242V75.7447H17.0848V75.7478ZM41.3905 63.9863V55.7411H50.599V63.9863H41.3905ZM41.3905 104.071V69.3942H50.599V104.071H41.3905Z" fill="black"/>
<path d="M64.8825 69.3941V74.126H65.0843C67.4758 70.3398 70.9076 68.4483 75.3737 68.4483C78.9391 68.4483 81.8275 69.6545 84.0388 72.0639C86.2501 74.4764 87.3557 77.5958 87.3557 81.4254V104.071H78.1472V82.7774C78.1472 80.8859 77.6161 79.354 76.557 78.1819C75.4948 77.0098 74.0196 76.4237 72.122 76.4237C70.0908 76.4237 68.4075 77.1679 67.0782 78.6532C65.7459 80.1416 65.0812 82.0549 65.0812 84.3991V104.068H55.8727V69.391H64.8762L64.8825 69.3941Z" fill="black"/>
<path d="M105.369 105.085C100.99 105.085 97.4494 103.429 94.7412 100.117C92.033 96.8057 90.6789 92.3559 90.6789 86.7682C90.6789 81.1804 92.0672 76.9571 94.8437 73.5523C97.6203 70.1507 101.173 68.4483 105.506 68.4483C109.838 68.4483 113.112 70.16 115.323 73.5864H115.525V55.741H124.734V104.071H115.863V99.5437H115.727C113.469 103.24 110.015 105.085 105.369 105.085ZM107.4 97.3793C110.109 97.3793 112.174 96.4553 113.596 94.6072C115.019 92.759 115.73 90.2132 115.73 86.9697C115.73 79.5804 113.043 75.8842 107.674 75.8842C105.192 75.8842 103.294 76.8764 101.987 78.8579C100.676 80.8424 100.024 83.4782 100.024 86.7651C100.024 90.052 100.667 92.759 101.953 94.6072C103.239 96.4553 105.055 97.3793 107.403 97.3793H107.4Z" fill="black"/>
<path d="M138.88 69.3941V74.9384H139.082C140.166 72.9104 141.362 71.4127 142.669 70.4422C143.977 69.4747 145.626 68.9879 147.611 68.9879C148.558 68.9879 149.278 69.0778 149.778 69.2576V77.3013H149.576C146.461 76.9881 143.958 77.6641 142.061 79.3292C140.166 80.9975 139.216 83.6115 139.216 87.1713V104.071H130.007V69.3941H138.877H138.88Z" fill="black"/>
<path d="M158.266 79.7975V68.8112C165.54 68.8112 171.457 62.9041 171.457 55.6418H182.46C182.46 68.96 171.606 79.7975 158.266 79.7975Z" fill="#17DDC0"/>
<path d="M207.673 79.7975C194.334 79.7975 183.479 68.96 183.479 55.6418H194.483C194.483 62.904 200.399 68.8111 207.673 68.8111V79.7975Z" fill="#17DDC0"/>
<path d="M194.483 105.085H183.479C183.479 91.7668 194.334 80.9293 207.673 80.9293V91.9156C200.399 91.9156 194.483 97.8228 194.483 105.085Z" fill="#17DDC0"/>
<path d="M182.46 105.085H171.457C171.457 97.8228 165.54 91.9156 158.266 91.9156V80.9293C171.606 80.9293 182.46 91.7668 182.46 105.085Z" fill="#17DDC0"/>
<path d="M201.085 100.902V99.6553H205.8V100.902H204.201V105.085H202.682V100.902H201.082H201.085ZM206.598 105.085V99.6553H208.704L209.657 103.079H209.698L210.673 99.6553H212.779V105.085H211.375V101.562H211.334L210.263 105.085H209.073L208.021 101.562H207.98V105.085H206.598Z" fill="#17DDC0"/>
</svg>
